<svg xmlns="http://www.w3.org/2000/svg" width="38" height="38" viewBox="0 0 38 38">
    <path fill="#FFF" d="M2 8.25h15.188l-5.625 2.5H4.5V33.5H31V27l2.5-3.6V36H2V8.25z"/>
    <path fill="#FFF" d="M21.4 12.666c-1.547.896-3.183 2.065-4.694 3.58-.967.965-1.745 1.905-2.372 2.786l-3.833.71L6 24.244l4.015.126 2.827-2.827c-.997 2.067-1.085 3.438-1.085 3.438l1.264 1.266s1.415-.136 3.498-1.145L13.63 27.99l.125 4.015 4.503-4.5.71-3.852c.89-.624 1.832-1.397 2.79-2.353 1.51-1.513 2.68-3.146 3.577-4.69-.987-.204-1.894-.613-2.606-1.327-.718-.716-1.132-1.622-1.33-2.61v-.004zm1.49-.8c.108.967.43 1.746.964 2.276.533.537 1.31.856 2.28.965C27.553 12.242 28 10 28 10s-2.242.448-5.11 1.866z"/>
    <path fill="none" stroke="#FFF" stroke-miterlimit="10" d="M30.5 12.5c0-2.485-2.512-5-5-5m7 3c0-2.485-2.512-5-5-5m7 3c0-2.485-2.512-5-5-5"/>
</svg>
